<?xml version="1.0" encoding="UTF-8" standalone="no"?>
<!-- Created with Inkscape (http://www.inkscape.org/) -->

<svg
   xmlns:dc="http://purl.org/dc/elements/1.1/"
   xmlns:cc="http://creativecommons.org/ns#"
   xmlns:rdf="http://www.w3.org/1999/02/22-rdf-syntax-ns#"
   xmlns:svg="http://www.w3.org/2000/svg"
   xmlns="http://www.w3.org/2000/svg"
   xmlns:sodipodi="http://sodipodi.sourceforge.net/DTD/sodipodi-0.dtd"
   xmlns:inkscape="http://www.inkscape.org/namespaces/inkscape"
   version="1.1"
   width="17.1"
   height="17.1"
   id="svg2"
   inkscape:version="0.48.4 r9943 custom"
   sodipodi:docname="r-u-up.svg">
  <sodipodi:namedview
     pagecolor="#ffffff"
     bordercolor="#666666"
     borderopacity="1"
     objecttolerance="10"
     gridtolerance="10"
     guidetolerance="10"
     inkscape:pageopacity="0"
     inkscape:pageshadow="2"
     inkscape:window-width="1176"
     inkscape:window-height="777"
     id="namedview3077"
     showgrid="true"
     inkscape:zoom="22.627417"
     inkscape:cx="12.508743"
     inkscape:cy="2.5302493"
     inkscape:window-x="513"
     inkscape:window-y="194"
     inkscape:window-maximized="0"
     inkscape:current-layer="svg2"
     showguides="true"
     inkscape:guide-bbox="true">
    <inkscape:grid
       type="xygrid"
       id="grid3851" />
  </sodipodi:namedview>
  <defs
     id="defs4" />
  <metadata
     id="metadata7">
    <rdf:RDF>
      <cc:Work
         rdf:about="">
        <dc:format>image/svg+xml</dc:format>
        <dc:type
           rdf:resource="http://purl.org/dc/dcmitype/StillImage" />
        <dc:title></dc:title>
      </cc:Work>
    </rdf:RDF>
  </metadata>
  <g
     transform="translate(-231.45,-261.31218)"
     id="layer1"
     style="fill:none;fill-opacity:1;stroke:#1abc9c;stroke-opacity:1"
     inkscape:export-filename="/Users/pagem/Documents/workspace/ruup/public/img/logo.png"
     inkscape:export-xdpi="1341.3464"
     inkscape:export-ydpi="1341.3464">
    <path
       d="m 232.5,277.36218 2.5,-5 c 0,0 -2.5,0 -2.5,-2.5 0,-2.5 2.5,-2.5 5,-2.5 l 0,7.5 c 0,2.5 2.5,2.5 2.5,2.5 0,0 2.5,0 2.5,-2.5 l 0,-12.5 5,7.5"
       id="path3823"
       style="fill:none;stroke:#1abc9c;stroke-width:2.09999989999999981;stroke-linecap:round;stroke-linejoin:round;stroke-miterlimit:4;stroke-opacity:1;stroke-dasharray:none;fill-opacity:1" />
  </g>
  <g
     id="g2997"
     transform="translate(4.5,1.5000004)">
    <path
       inkscape:export-ydpi="1339.6439"
       inkscape:export-xdpi="1339.6439"
       inkscape:export-filename="/Users/pagem/Documents/workspace/ruup/public/img/logo.png"
       sodipodi:nodetypes="cczccc"
       inkscape:connector-curvature="0"
       id="path3855"
       d="m 18.5,22.1 -1,4 c -0.73389,-4.276219 -2,-9 1,-10.5 3,-1.5 5.20345,-0.843143 6,1 l -7,3 z"
       style="fill:#e74c3c;fill-opacity:1;stroke:none" />
    <g
       inkscape:export-ydpi="1339.6439"
       inkscape:export-xdpi="1339.6439"
       inkscape:export-filename="/Users/pagem/Documents/workspace/ruup/public/img/logo.png"
       transform="translate(-212.4661,-247.61769)"
       id="g3847"
       style="fill:none;stroke:#1abc9c;stroke-opacity:1">
      <path
         inkscape:connector-curvature="0"
         d="m 232.5,277.36218 2.5,-5 c 0,0 -2.5,0 -2.5,-2.5 0,-2.5 2.5,-2.5 5,-2.5 l 0,7.5 c 0,2.5 2.5,2.5 2.5,2.5 0,0 2.5,0 2.5,-2.5 l 0,-12.5 5,7.5"
         id="path3849"
         style="fill:none;stroke:#1abc9c;stroke-width:2.0999999;stroke-linecap:round;stroke-linejoin:round;stroke-miterlimit:4;stroke-opacity:1;stroke-dasharray:none" />
    </g>
    <path
       inkscape:export-ydpi="1339.6439"
       inkscape:export-xdpi="1339.6439"
       inkscape:export-filename="/Users/pagem/Documents/workspace/ruup/public/img/logo.png"
       sodipodi:nodetypes="zzzzz"
       inkscape:connector-curvature="0"
       id="path3853"
       d="m 18.5,22.1 c 0.274125,0.148437 7.200317,-3.248233 7.294916,-3.550847 C 25.889515,18.246539 24.742599,16.732583 24.5,16.6 c -0.242599,-0.132583 -6.90625,2.678345 -7,3 -0.09375,0.321655 0.725875,2.351563 1,2.5 z"
       style="fill:#ecf0f1;fill-opacity:1;stroke:none" />
  </g>
  <path
     sodipodi:type="arc"
     style="fill:#ecf0f1;fill-opacity:1;stroke:none"
     id="path3857"
     sodipodi:cx="18"
     sodipodi:cy="26.6"
     sodipodi:rx="0.5"
     sodipodi:ry="0.5"
     d="m 18.5,26.6 a 0.5,0.5 0 1 1 -1,0 0.5,0.5 0 1 1 1,0 z"
     transform="translate(-0.5,0)"
     inkscape:export-filename="/Users/pagem/Documents/workspace/ruup/public/img/logo.png"
     inkscape:export-xdpi="1339.6439"
     inkscape:export-ydpi="1339.6439" />
</svg>
